M48
;GenerationSoftware,Autodesk,EAGLE,9.6.2*%
;CreationDate,2022-07-27T08:50:37Z*%
FMAT,2
ICI,OFF
METRIC,TZ,000.000
T6C0.350
T5C0.800
T4C1.000
T3C1.016
T2C1.100
T1C1.400
%
G90
M71
T1
X95750Y93700
X90250Y85300
X95750Y85300
X95750Y89500
X90250Y93700
X90250Y89500
T2
X23600Y86700
X25900Y86700
X55500Y86800
X57800Y86800
X60100Y86800
X21300Y86700
T3
X48290Y77500
X50830Y77500
X53370Y77500
X8870Y75300
X6330Y75300
X73470Y75700
X70930Y75700
X8167Y32677
X55910Y77500
X97210Y78700
X94670Y78700
X92130Y78700
X97110Y100000
X89590Y78700
X89490Y100000
X92030Y100000
X94570Y100000
X92430Y10000
X94970Y10000
X15530Y9900
X18070Y9900
X102267Y35817
X102267Y33277
X8167Y30137
X8167Y37757
X8167Y35217
T4
X53647Y8057
X51107Y8057
X39423Y56317
X36883Y56317
X48567Y8057
X46027Y8057
X71427Y56317
X68887Y8057
X73967Y56317
X76507Y56317
X79047Y56317
X81587Y56317
X68887Y56317
X66347Y56317
X63807Y56317
X59743Y56317
X57203Y56317
X54663Y56317
X52123Y56317
X49583Y56317
X47043Y56317
X44503Y56317
X41963Y56317
X71427Y8057
X73967Y8057
X76507Y8057
X79047Y8057
X81587Y8057
X63807Y8057
X61267Y8057
X58727Y8057
X56187Y8057
T5
X80400Y46720
X77860Y46720
X75320Y46720
X72780Y46720
X70240Y46720
X67700Y46720
X65160Y46720
X62620Y46720
X30580Y93280
X57540Y46720
X55000Y46720
X52460Y46720
X49920Y46720
X47380Y46720
X58520Y108520
X55980Y108520
X53440Y108520
X60080Y46720
X50900Y108520
X48360Y108520
X45820Y108520
X43280Y108520
X40740Y108520
X38200Y108520
X35660Y108520
X30580Y108520
X28040Y108520
X25500Y108520
X22960Y108520
X22960Y93280
X25500Y93280
X28040Y93280
X33120Y93280
X35660Y93280
X38200Y93280
X40740Y93280
X43280Y93280
X45820Y93280
X48360Y93280
X50900Y93280
X53440Y93280
X55980Y93280
X58520Y93280
X33120Y108520
X47380Y31480
X49920Y31480
X52460Y31480
X55000Y31480
X57540Y31480
X60080Y31480
X62620Y31480
X65160Y31480
X67700Y31480
X70240Y31480
X72780Y31480
X75320Y31480
X77860Y31480
X80400Y31480
X82940Y31480
X82940Y46720
T6
X2500Y50700
X15400Y58500
X1900Y42400
X2000Y32500
X2100Y24900
X2000Y16700
X2300Y3800
X12000Y3800
X23000Y3700
X33100Y3700
X105900Y4100
X94700Y3700
X84500Y3800
X74200Y3700
X64000Y3800
X52900Y3900
X42600Y3800
X107400Y25000
X107600Y33300
X107400Y42900
X107500Y51000
X24500Y58600
X32700Y58800
X41000Y58700
X58600Y58900
X67200Y58800
X76800Y58800
X84900Y58800
X94400Y58800
X86700Y73900
X89800Y73900
X95900Y73800
X99300Y73800
X86600Y94600
X86700Y91800
X86700Y89100
X86700Y68600
X38000Y44000
X67000Y106900
X12300Y106600
X66900Y113100
X57800Y113200
X49600Y113200
X12400Y112900
X77700Y100900
X77700Y93600
X77700Y86500
X77900Y78100
X77800Y69800
X68100Y69600
X49400Y58800
X57200Y69700
X45300Y69700
X35000Y69800
X24400Y69900
X14000Y69800
X2800Y69800
X2200Y92100
X107500Y16100
X2200Y100900
X2200Y77200
X2200Y84900
X86600Y110400
X89700Y110500
X96600Y110500
X99300Y110500
X99300Y105500
X95700Y105400
X41000Y113200
X32500Y113000
X90800Y105300
X86700Y105300
X99400Y68600
X96300Y68600
X89600Y68600
X23300Y112900
M30